<svg xmlns="http://www.w3.org/2000/svg" viewBox="0 0 120 140" width="120" height="120">
  <!-- Background Circle -->
    <circle cx="70" cy="70" r="55" fill="white" stroke="#D3D3D3" stroke-width="4"/>

  <!-- Circular Progress -->
  <path 
    d="M 70 15 A 55 55 0 1 1 15 70"
    stroke="#2C91E2"
    stroke-width="6"
    fill="none"
    stroke-linecap="round"
    stroke-dasharray="345" 
    stroke-dashoffset="345">
    
    <!-- Animation -->
    <animate class="progressAnimation" attributeName="stroke-dashoffset" from="345" to="86" dur="2s" begin="1s" fill="freeze" restart="always"/>
  </path>
  <!-- Top Blue Databases -->
  <rect x="40" y="35" width="18" height="8" rx="3" fill="#64B5F6"/>
  <rect x="40" y="44" width="18" height="8" rx="3" fill="#42A5F5"/>
  <rect x="40" y="53" width="18" height="8" rx="3" fill="#2196F3"/>

  <rect x="82" y="35" width="18" height="8" rx="3" fill="#64B5F6"/>
  <rect x="82" y="44" width="18" height="8" rx="3" fill="#42A5F5"/>
  <rect x="82" y="53" width="18" height="8" rx="3" fill="#2196F3"/>

  <!-- Bottom Yellow Database -->
  <rect x="60" y="90" width="20" height="8" rx="3" fill="#FFD54F"/>
  <rect x="60" y="98" width="20" height="8" rx="3" fill="#FFC107"/>
  <rect x="60" y="106" width="20" height="8" rx="3" fill="#FFA000"/>

  <!-- Connection Arrow (Reduced Side Arrows) -->
  <line x1="62" y1="58" x2="79" y2="58" stroke="#8D3C32" stroke-width="3"/>
  <line x1="70" y1="58" x2="70" y2="80" stroke="#8D3C32" stroke-width="3"/>
  <polygon points="66,80 70,88 74,80" fill="#8D3C32"/>
</svg>
