<?xml version="1.0" encoding="UTF-8" standalone="no"?>
<svg
   version="1.1"
   viewBox="-5.0 -10.0 110.0 135.0"
   id="svg2"
   sodipodi:docname="noun-database-7220496.svg"
   inkscape:version="1.4 (e7c3feb1, 2024-10-09)"
   xmlns:inkscape="http://www.inkscape.org/namespaces/inkscape"
   xmlns:sodipodi="http://sodipodi.sourceforge.net/DTD/sodipodi-0.dtd"
   xmlns="http://www.w3.org/2000/svg"
   xmlns:svg="http://www.w3.org/2000/svg">
  <defs
     id="defs2" />
  <sodipodi:namedview
     id="namedview2"
     pagecolor="#ffffff"
     bordercolor="#000000"
     borderopacity="0.25"
     inkscape:showpageshadow="2"
     inkscape:pageopacity="0.0"
     inkscape:pagecheckerboard="0"
     inkscape:deskcolor="#d1d1d1"
     inkscape:zoom="2.5738023"
     inkscape:cx="23.894609"
     inkscape:cy="53.811437"
     inkscape:window-width="1104"
     inkscape:window-height="772"
     inkscape:window-x="0"
     inkscape:window-y="34"
     inkscape:window-maximized="0"
     inkscape:current-layer="svg2" />
  <path
     d="m14.035 24.105c1.4297 0 2.7188-0.85938 3.2656-2.1797 0.54688-1.3203 0.24609-2.8398-0.76562-3.8516-1.0117-1.0117-2.5312-1.3125-3.8516-0.76562-1.3203 0.54688-2.1797 1.8359-2.1797 3.2656 0.003906 1.9492 1.582 3.5273 3.5312 3.5312zm0-4.4609c0.37891 0 0.71484 0.22656 0.85938 0.57422 0.14453 0.34375 0.0625 0.74609-0.20312 1.0117-0.26172 0.26562-0.66406 0.34375-1.0117 0.19922-0.34375-0.14453-0.57031-0.48047-0.57031-0.85547 0-0.25 0.097656-0.48438 0.26953-0.66016 0.17578-0.17578 0.41016-0.27344 0.65625-0.27344zm5.5312 0.92969c0-0.34766 0.13672-0.67969 0.37891-0.92578 0.24609-0.24609 0.57813-0.38672 0.92578-0.38672h6.832c0.70312 0.019531 1.2656 0.59766 1.2656 1.3047 0 0.70312-0.5625 1.2812-1.2656 1.3008h-6.832c-0.71875 0-1.3008-0.57813-1.3047-1.2969zm27.707 0c0-0.34766 0.13672-0.67969 0.37891-0.92578 0.24609-0.24609 0.57812-0.38672 0.92578-0.38672h1.8125c0.70312 0.019531 1.2656 0.59766 1.2656 1.3047 0 0.70312-0.5625 1.2812-1.2656 1.3008h-1.8125c-0.71875 0-1.3008-0.57813-1.3047-1.2969zm5.2773 0c0-0.34766 0.13672-0.67969 0.37891-0.92578 0.24609-0.24609 0.57812-0.38672 0.92578-0.38672h1.8086c0.70313 0.019531 1.2656 0.59766 1.2656 1.3047 0 0.70312-0.5625 1.2812-1.2656 1.3008h-1.8086c-0.71875 0-1.3008-0.57813-1.3047-1.2969zm5.2734 0c-0.003907-0.34766 0.13281-0.67969 0.37891-0.92578 0.24609-0.24609 0.57812-0.38672 0.92188-0.38672h1.8086c0.35156-0.007813 0.69531 0.125 0.94531 0.37109 0.25391 0.24219 0.39453 0.58203 0.39453 0.93359 0 0.35156-0.14063 0.6875-0.39453 0.93359-0.25 0.24609-0.59375 0.37891-0.94531 0.36719h-1.8086c-0.71484 0-1.3008-0.57813-1.3008-1.2969zm-38.496 22.637 2.9219-10.902-0.003906-0.003906c0.20312-0.67578 0.90625-1.0703 1.5898-0.88672 0.67969 0.17969 1.0938 0.875 0.92969 1.5625l-2.9219 10.902c-0.15234 0.57031-0.67188 0.96875-1.2656 0.96484-0.40234 0.003906-0.78516-0.1875-1.0352-0.50781-0.24609-0.32031-0.33203-0.73828-0.22656-1.1289zm-6.5195-4.6055c-0.50781-0.50781-0.50781-1.332 0-1.8438l4.2031-4.2031c0.50781-0.50781 1.332-0.50781 1.8438 0 0.50781 0.51172 0.50781 1.3359 0 1.8438l-3.2812 3.2812 3.2812 3.2812c0.50781 0.51172 0.50781 1.3359-0.003907 1.8438-0.50781 0.50781-1.332 0.50781-1.8398 0zm12.434 2.3594 3.2852-3.2812-3.2852-3.2812c-0.50781-0.50781-0.50781-1.332 0-1.8438 0.50781-0.50781 1.332-0.50781 1.8438 0l4.2031 4.2031h-0.003906c0.50781 0.51172 0.50781 1.3359 0 1.8438l-4.1992 4.1992c-0.51172 0.51172-1.3359 0.51172-1.8438 0.003906-0.50781-0.51172-0.50781-1.3359 0-1.8438zm22.266-5.2969h-9.6875c-0.71875 0-1.3008-0.58203-1.3008-1.3008s0.58203-1.3008 1.3008-1.3008h9.6875c0.71875 0 1.3008 0.58203 1.3008 1.3008s-0.58203 1.3008-1.3008 1.3008zm-8.8594 4.0664c0-0.71875 0.58203-1.3008 1.3008-1.3008h3.5586c0.72266 0 1.3047 0.58203 1.3047 1.3008s-0.58203 1.3008-1.3047 1.3008h-3.5586c-0.34375 0-0.67578-0.13672-0.91797-0.37891-0.24609-0.24609-0.38281-0.57812-0.38281-0.92188zm8.8359-1.3008h8.2109c0.71875 0 1.3008 0.58203 1.3008 1.3008s-0.58203 1.3008-1.3008 1.3008h-8.2109c-0.71875 0-1.3008-0.58203-1.3008-1.3008s0.58203-1.3008 1.3008-1.3008zm10.875 1.3008h0.003906c0-0.71875 0.58203-1.3008 1.3008-1.3008h1.3867c0.72266 0 1.3047 0.58203 1.3047 1.3008s-0.58203 1.3008-1.3047 1.3008h-1.3867c-0.71875 0-1.3008-0.58203-1.3008-1.3008zm-11.98 6.668h-3.7617c-0.71875 0-1.3008-0.58203-1.3008-1.3008s0.58203-1.3008 1.3008-1.3008h3.7656c0.71875 0 1.3008 0.58203 1.3008 1.3008s-0.58203 1.3008-1.3008 1.3008zm15.977-1.3008h0.003906c0 0.34766-0.13672 0.67969-0.38281 0.92188-0.24609 0.24609-0.57812 0.38281-0.92578 0.37891h-10.691c-0.71875 0-1.3008-0.58203-1.3008-1.3008s0.58203-1.3008 1.3008-1.3008h10.691c0.34766 0 0.67969 0.13672 0.92578 0.37891 0.24609 0.24609 0.38281 0.57812 0.38281 0.92187zm-28.672 2.0195h-22.934c-1.3438 0.003906-2.4336 1.0938-2.4336 2.4414v5.1367c0 1.3438 1.0898 2.4375 2.4336 2.4414h22.934c1.3477-0.003906 2.4414-1.0938 2.4414-2.4414v-5.1367c0-1.3477-1.0938-2.4414-2.4414-2.4414zm-0.16406 7.4141h-22.598v-4.8086h22.602zm23.129-4.0664h0.003906c0 0.34766-0.14062 0.67578-0.38281 0.92188-0.24609 0.24219-0.57422 0.38281-0.92188 0.38281h-10.156c-0.71875 0-1.3008-0.58594-1.3008-1.3047s0.58203-1.3008 1.3008-1.3008h10.16c0.71875 0 1.3008 0.58203 1.3008 1.3008zm5.707 0c0 0.34766-0.13672 0.67578-0.38281 0.92188-0.24219 0.24609-0.57422 0.38281-0.92188 0.38281h-1.7227c-0.71875 0-1.3047-0.58594-1.3047-1.3047s0.58594-1.3008 1.3047-1.3008h1.7227c0.34766 0 0.67969 0.13672 0.92578 0.37891 0.24609 0.24609 0.38281 0.57812 0.38281 0.92188zm-19.84 0c0 0.34766-0.13672 0.67578-0.38281 0.92188-0.24219 0.24219-0.57422 0.38281-0.92187 0.38281h-1.5352c-0.71875 0-1.3008-0.58594-1.3008-1.3047s0.58203-1.3008 1.3008-1.3008h1.5391c0.71875 0 1.3047 0.58203 1.3047 1.3008zm51.184 18.727c1.0859 0 2.1328-0.42969 2.9023-1.1992 0.76953-0.77344 1.2031-1.8164 1.2031-2.9062v-8.1094c0-2.2656-1.8398-4.1055-4.1055-4.1055h-25.141v-34.211c-0.003906-3.0078-2.4414-5.4453-5.4531-5.4492h-55.461c-3.0078 0.003906-5.4453 2.4453-5.4453 5.457v41.07c0.003906 3.0078 2.4375 5.4492 5.4453 5.4531h34.555c0.058593 2.2266 1.8789 4 4.1055 4h1.2461v1.2617h-1.2461c-2.2656 0.007813-4.1016 1.8398-4.1055 4.1055v8.1172c0 2.2656 1.8359 4.1055 4.1055 4.1055h47.395c1.0859 0 2.1328-0.43359 2.9023-1.2031 0.76953-0.76953 1.2031-1.8125 1.2031-2.9023v-8.1172c0-2.2656-1.8398-4.1055-4.1055-4.1055h-1.2461v-1.2617zm-86.055-53.371h55.461c1.5703 0.003906 2.8398 1.2734 2.8438 2.8438v6.6445l-61.145-0.003906v-6.6367c0-0.75391 0.29687-1.4805 0.83203-2.0156 0.53125-0.53125 1.2539-0.83203 2.0078-0.83203zm-2.8438 43.918 0.003907-31.824h61.148v24.961h-19.648c-1.2969 0-2.5195 0.61328-3.2969 1.6562h-3.332c-0.71875 0-1.3008 0.58203-1.3008 1.3008s0.58203 1.3047 1.3008 1.3047h2.5195v5.4531l-34.551-0.003906c-1.5703-0.003906-2.8398-1.2773-2.8398-2.8477zm40 5.3516 0.003907-8.1133c0-0.82812 0.67578-1.4961 1.5039-1.4961h47.391c0.82422 0 1.4961 0.66797 1.4961 1.4961v8.1133c0 0.82812-0.67187 1.5-1.4961 1.5h-47.395c-0.82813 0-1.5-0.67188-1.5039-1.5zm50.395 9.4727v8.1133l0.003907 0.003906c0 0.82812-0.67188 1.4961-1.5 1.4961h-47.395c-0.82813 0-1.5-0.66797-1.5039-1.4961v-8.1211c0-0.82812 0.67578-1.5 1.5039-1.5h47.395c0.82812 0 1.4961 0.67188 1.4961 1.5zm-5.3477-4.1055-39.695 0.003906v-1.2617l39.695-0.003906zm-38.25-13.242c-1.543 0-2.9375 0.92969-3.5273 2.3594-0.58984 1.4258-0.26562 3.0664 0.82813 4.1602s2.7344 1.4219 4.1602 0.82812c1.4297-0.58984 2.3594-1.9805 2.3633-3.5234-0.003906-2.1133-1.7148-3.8242-3.8242-3.8242zm0 5.0352c-0.49219 0-0.93359-0.29688-1.1211-0.75391-0.1875-0.45312-0.082031-0.97656 0.26563-1.3242 0.34766-0.34766 0.87109-0.44922 1.3242-0.26172 0.45703 0.19141 0.75 0.63672 0.75 1.1289 0 0.32031-0.12891 0.62891-0.35938 0.85547-0.22656 0.23047-0.53516 0.35547-0.85938 0.35547zm32.836-1.2109c0 0.34375-0.13672 0.67578-0.37891 0.91797-0.24609 0.24609-0.57813 0.38281-0.92188 0.38281h-2.9883c-0.35156 0.007812-0.69531-0.125-0.94531-0.36719-0.25391-0.24609-0.39453-0.58594-0.39453-0.9375 0-0.35156 0.14062-0.6875 0.39453-0.93359 0.25-0.24609 0.59375-0.37891 0.94531-0.36719h2.9883c0.34375 0 0.67578 0.13672 0.92188 0.38281 0.24219 0.24219 0.37891 0.57422 0.37891 0.92188zm-5.9805 0h0.003906c0 0.71484-0.58203 1.2969-1.3008 1.3008h-2.9883c-0.35156 0.007812-0.69141-0.125-0.94531-0.36719-0.25391-0.24609-0.39453-0.58594-0.39453-0.9375 0-0.35156 0.14062-0.6875 0.39453-0.93359 0.25391-0.24609 0.59375-0.37891 0.94531-0.36719h2.9883c0.71875 0 1.3008 0.58594 1.3008 1.3047zm13.766-2.1523h0.003906c0 0.34375-0.13672 0.67578-0.38281 0.91797-0.24219 0.24609-0.57422 0.38281-0.91797 0.38281h-4.5156c-0.71875 0-1.3008-0.58203-1.3008-1.3008s0.58203-1.3047 1.3008-1.3047h4.5156c0.34375 0 0.67578 0.13672 0.91797 0.38281 0.24609 0.24609 0.38281 0.57422 0.38281 0.92188zm0 4.2969h0.003906c0 0.34375-0.13672 0.67578-0.38281 0.91797-0.24219 0.24609-0.57422 0.38281-0.91797 0.38281h-4.5156c-0.71875 0-1.3008-0.58203-1.3008-1.3008s0.58203-1.3047 1.3008-1.3047h4.5156c0.34375 0 0.67578 0.13672 0.91797 0.38281 0.24609 0.24609 0.38281 0.57422 0.38281 0.92188zm-23.664-5.9688h0.003906c-1.543 0-2.9375 0.92969-3.5273 2.3594-0.58984 1.4258-0.26172 3.0703 0.82812 4.1602 1.0938 1.0938 2.7344 1.418 4.1641 0.82812 1.4258-0.58984 2.3555-1.9805 2.3594-3.5234-0.003906-2.1133-1.7148-3.8242-3.8242-3.8242zm0 5.0352h0.003906c-0.49219 0-0.93359-0.29688-1.1211-0.75391-0.1875-0.45312-0.082031-0.97656 0.26562-1.3242 0.34766-0.34766 0.87109-0.44922 1.3242-0.26172 0.45703 0.19141 0.75 0.63672 0.75 1.1289-0.003906 0.66797-0.54688 1.2109-1.2188 1.2109zm-5.9844-5.0156h-4.9922c-0.71875 0-1.3008 0.58203-1.3008 1.3047v4.9922c0 0.34766 0.13281 0.67969 0.37891 0.92188 0.24609 0.24609 0.57812 0.38672 0.92188 0.38672h4.9922c0.34766 0 0.67969-0.14062 0.92188-0.38281 0.24609-0.24609 0.38281-0.57422 0.38281-0.92188v-4.9961c0-0.71875-0.58203-1.3008-1.3008-1.3047zm-1.3008 4.9922-2.3867 0.003906v-2.3906h2.3867zm-9.6758 20.211h0.003906c1.5469 0.003906 2.9414-0.92578 3.5352-2.3555 0.59375-1.4258 0.26563-3.0703-0.82812-4.168-1.0898-1.0938-2.7344-1.418-4.1641-0.82812s-2.3594 1.9844-2.3594 3.5312c0.003906 2.1094 1.7109 3.8164 3.8164 3.8203zm0-5.0391h0.003906c0.49219 0 0.9375 0.29297 1.1289 0.75 0.19141 0.45312 0.085938 0.98047-0.26172 1.3281-0.34766 0.34766-0.87109 0.45312-1.3281 0.26562-0.45312-0.1875-0.75-0.63281-0.75-1.125-0.003907-0.67188 0.53906-1.2148 1.2109-1.2188zm27.25 1.2148c0-0.34375 0.13672-0.67578 0.37891-0.91797 0.24609-0.24609 0.57812-0.38281 0.92188-0.38281h2.9883c0.72266 0 1.3047 0.58203 1.3047 1.3008 0 0.72266-0.58203 1.3047-1.3047 1.3047h-2.9883c-0.34375 0-0.67578-0.13672-0.92188-0.38281-0.24219-0.24219-0.37891-0.57422-0.37891-0.92187zm-5.9805 0c0-0.34375 0.13672-0.67578 0.38281-0.91797 0.24219-0.24609 0.57422-0.38281 0.92188-0.38281h2.9883c0.72266 0 1.3047 0.58203 1.3047 1.3008 0 0.72266-0.58203 1.3047-1.3047 1.3047h-2.9883c-0.34766 0-0.67969-0.13672-0.92188-0.37891-0.24609-0.24609-0.38672-0.57812-0.38672-0.92578zm12.242-2.1445c0-0.34375 0.13672-0.67578 0.37891-0.92188 0.24609-0.24219 0.57812-0.37891 0.92188-0.37891h4.5156c0.70312 0.019531 1.2656 0.59766 1.2656 1.3008 0 0.70703-0.5625 1.2812-1.2656 1.3047h-4.5156c-0.71875 0-1.3008-0.58594-1.3008-1.3047zm0 4.293c0-0.34766 0.13672-0.67578 0.37891-0.92188 0.24609-0.24609 0.57812-0.38281 0.92188-0.38281h4.5156c0.70312 0.019531 1.2656 0.59766 1.2656 1.3047 0 0.70312-0.5625 1.2812-1.2656 1.3008h-4.5156c-0.71875 0-1.3008-0.58203-1.3008-1.3008zm-16.547 1.6758c1.5469 0 2.9414-0.92969 3.5312-2.3594 0.59375-1.4297 0.26562-3.0742-0.82812-4.1641-1.0938-1.0938-2.7383-1.4219-4.1641-0.83203-1.4297 0.59375-2.3594 1.9883-2.3594 3.5312 0 2.1133 1.7109 3.8203 3.8203 3.8242zm0-5.0391c0.49219 0 0.9375 0.29688 1.125 0.75 0.1875 0.45703 0.085937 0.98047-0.26172 1.3281-0.35156 0.34766-0.875 0.45312-1.3281 0.26172-0.45703-0.1875-0.75391-0.62891-0.75391-1.125 0-0.67188 0.54688-1.2148 1.2188-1.2148zm-10.98 5.0195h4.9922c0.34766 0 0.67969-0.13672 0.92188-0.38281 0.24609-0.24219 0.38281-0.57422 0.38281-0.92187v-4.9922c0-0.34375-0.13672-0.67578-0.38281-0.92188-0.24219-0.24219-0.57422-0.37891-0.92188-0.37891h-4.9922c-0.71875 0-1.3008 0.58203-1.3008 1.3008v4.9922c0 0.34766 0.13672 0.67969 0.37891 0.92187 0.24609 0.24609 0.57812 0.38281 0.92188 0.38281zm1.3008-4.9922h2.3867v2.3867h-2.3828z"
     id="path1" />
</svg>
